<svg width="44" height="44" viewBox="0 0 44 44" fill="none" xmlns="http://www.w3.org/2000/svg">
<circle opacity="0.1" cx="22" cy="22" r="22" fill="url(#paint0_linear_1212_4400)"/>
<path d="M27.3656 34.8344H16.5844C14.2875 34.8344 12.4187 32.9656 12.4187 30.6688V20.3688C12.4187 18.0719 14.2875 16.2031 16.5844 16.2031H27.3656C29.6625 16.2031 31.5312 18.0719 31.5312 20.3688V30.6688C31.5312 32.9656 29.6625 34.8344 27.3656 34.8344ZM34.5719 29.7375C33.8031 29.7375 33.1781 29.1125 33.1781 28.3438V22.6969C33.1781 21.9281 33.8031 21.3031 34.5719 21.3031C35.3406 21.3031 35.9656 21.9281 35.9656 22.6969V28.3438C35.9656 29.1156 35.3406 29.7375 34.5719 29.7375ZM9.49061 29.7375C8.72186 29.7375 8.09686 29.1125 8.09686 28.3438V22.6969C8.09686 21.9281 8.72186 21.3031 9.49061 21.3031C10.2594 21.3031 10.8844 21.9281 10.8844 22.6969V28.3438C10.8844 29.1156 10.2625 29.7375 9.49061 29.7375Z" fill="#333333"/>
<path d="M21.975 18.9938C21.2062 18.9938 20.5812 18.3688 20.5812 17.6001V13.4782C20.5812 12.7095 21.2062 12.0845 21.975 12.0845C22.7437 12.0845 23.3687 12.7095 23.3687 13.4782V17.6001C23.3687 18.3688 22.7437 18.9938 21.975 18.9938Z" fill="#333333"/>
<path d="M21.975 14.6438C20.4375 14.6438 19.1875 13.3938 19.1875 11.8563C19.1875 10.3188 20.4375 9.06885 21.975 9.06885C23.5125 9.06885 24.7625 10.3188 24.7625 11.8563C24.7625 13.3938 23.5125 14.6438 21.975 14.6438ZM18.4687 27.1095C17.5906 27.1095 16.8781 26.397 16.8781 25.5188C16.8781 24.6407 17.5906 23.9282 18.4687 23.9282C19.3469 23.9282 20.0594 24.6407 20.0594 25.5188C20.0594 26.397 19.3469 27.1095 18.4687 27.1095ZM25.4656 27.1095C24.5875 27.1095 23.875 26.397 23.875 25.5188C23.875 24.6407 24.5875 23.9282 25.4656 23.9282C26.3437 23.9282 27.0562 24.6407 27.0562 25.5188C27.0562 26.397 26.3437 27.1095 25.4656 27.1095Z" fill="#333333"/>
<path d="M16.8781 25.5188C16.8781 26.397 17.5906 27.1095 18.4687 27.1095C19.3469 27.1095 20.0594 26.397 20.0594 25.5188C20.0594 24.6407 19.3469 23.9282 18.4687 23.9282C17.5906 23.9282 16.8781 24.6407 16.8781 25.5188Z" fill="#333333"/>
<path d="M23.875 25.5188C23.875 26.397 24.5875 27.1095 25.4656 27.1095C26.3437 27.1095 27.0562 26.397 27.0562 25.5188C27.0562 24.6407 26.3437 23.9282 25.4656 23.9282C24.5875 23.9282 23.875 24.6407 23.875 25.5188Z" fill="#333333"/>
<circle cx="18" cy="25" r="2" fill="#D9D9D9"/>
<circle cx="26" cy="25" r="2" fill="#D9D9D9"/>
<defs>
<linearGradient id="paint0_linear_1212_4400" x1="-5.67091e-08" y1="27.1944" x2="39.3862" y2="27.3647" gradientUnits="userSpaceOnUse">
<stop stop-color="#00FF59"/>
<stop offset="1" stop-color="#AA6CFF"/>
</linearGradient>
</defs>
</svg>
