<svg width="10" height="10" viewBox="0 0 10 10" fill="none" xmlns="http://www.w3.org/2000/svg">
<path d="M10 6.16358C9.99949 5.14307 8.70103 4.35692 6.92308 4.25744V1.91794C6.92256 0.593328 5.18462 0 3.46154 0C1.73846 0 0.000512821 0.592815 0 1.91794V7.56924C0 8.89385 1.73846 9.48718 3.46154 9.48718C3.63949 9.48718 3.82206 9.47076 4.00359 9.45281C4.66718 9.82358 5.6041 10 6.53846 10C8.26103 10 10 9.40667 10 8.08206V6.16358C10 6.16409 10 6.16409 10 6.16358ZM9.23077 6.16461C9.23077 6.70718 8.07949 7.31386 6.53846 7.31386C4.99744 7.31386 3.84615 6.70718 3.84615 6.16461C3.84615 5.96564 4.0036 5.75847 4.2759 5.57539C4.28513 5.57026 4.29232 5.56306 4.30104 5.55742C4.77488 5.24973 5.58103 5.0154 6.53846 5.0154C8.07949 5.0154 9.23077 5.62205 9.23077 6.16461ZM6.15385 3.73335C6.15385 3.96463 5.95076 4.15793 5.75743 4.29281C5.0441 4.37742 4.42821 4.57693 3.96616 4.85796C3.80206 4.87181 3.63691 4.88206 3.46204 4.88206C2.01178 4.88206 0.769732 4.25027 0.769732 3.73335V3.19386C1.43691 3.63078 2.45076 3.83692 3.46204 3.83692C4.47332 3.83692 5.48717 3.63078 6.15435 3.19386V3.73335H6.15385ZM0.769231 4.92256C1.38615 5.34 2.29437 5.60102 3.19949 5.64409C3.12155 5.80871 3.07692 5.98206 3.07692 6.16411C3.07692 6.16411 3.07692 6.1641 3.07692 6.16461V6.7841C1.79897 6.68616 0.769231 6.12256 0.769231 5.65179V4.92256ZM3.46154 0.769231C4.78513 0.769231 6.15385 1.19899 6.15385 1.91848C6.15385 2.66514 4.76667 3.06769 3.46154 3.06769C2.15641 3.06769 0.769231 2.66514 0.769231 1.91848C0.769231 1.19899 2.13795 0.769231 3.46154 0.769231ZM0.769231 7.56924V6.84051C1.35846 7.23897 2.21231 7.49488 3.07692 7.55437V8.08206C3.07692 8.31539 3.13333 8.52463 3.2318 8.71335C1.9841 8.66668 0.769231 8.24667 0.769231 7.56924ZM6.53846 9.23077C5.70821 9.23077 4.86052 9.06154 4.34411 8.75795C4.03693 8.57744 3.84665 8.34975 3.84665 8.08206V7.39796C4.47127 7.82155 5.42819 8.08309 6.53896 8.08309C7.64973 8.08309 8.60666 7.82155 9.23127 7.39796V8.08206C9.23076 8.80103 7.86205 9.23077 6.53846 9.23077Z" fill="#878FBC"/>
</svg>
