<svg width="10" height="10" viewBox="0 0 10 10" fill="none" xmlns="http://www.w3.org/2000/svg">
<path d="M5 0C2.24186 0 0 2.24186 0 5C0 7.75814 2.24186 10 5 10C7.75814 10 10 7.75814 10 5C10 2.24186 7.75814 0 5 0ZM5 9.30233C2.62791 9.30233 0.697674 7.37209 0.697674 5C0.697674 2.62791 2.62791 0.697674 5 0.697674C7.37209 0.697674 9.30233 2.62791 9.30233 5C9.30233 7.37209 7.37209 9.30233 5 9.30233ZM5.46046 4.75349L4.71163 4.56744C4.59535 4.53954 4.49767 4.47442 4.42326 4.3814C4.35349 4.29302 4.31628 4.1814 4.31628 4.06046C4.31628 3.77209 4.54884 3.53954 4.83721 3.53954H5.16279C5.42791 3.53954 5.65116 3.73953 5.68372 4.00465C5.70698 4.19535 5.87442 4.33488 6.06977 4.31163C6.26047 4.28837 6.4 4.11628 6.37674 3.92558C6.31163 3.36744 5.88372 2.93488 5.33953 2.85581V2.66977C5.33953 2.47907 5.1814 2.32093 4.9907 2.32093C4.8 2.32093 4.64186 2.47907 4.64186 2.66977V2.85581C4.06512 2.94884 3.6186 3.45116 3.6186 4.05581C3.6186 4.33023 3.71163 4.59535 3.87442 4.80465C4.04186 5.0186 4.27442 5.17209 4.53954 5.23721L5.28837 5.42326C5.52093 5.48372 5.68372 5.68837 5.68372 5.93023C5.68372 6.06977 5.62791 6.2 5.53023 6.29767C5.43256 6.39535 5.30233 6.45116 5.16279 6.45116H4.83721C4.57209 6.45116 4.34884 6.25116 4.31628 5.98605C4.29302 5.79535 4.12093 5.65581 3.93023 5.67907C3.73953 5.70233 3.6 5.87442 3.62326 6.06512C3.68372 6.6186 4.10698 7.04651 4.63721 7.13023V7.31628C4.63721 7.50698 4.79535 7.66512 4.98605 7.66512C5.17674 7.66512 5.33488 7.50698 5.33488 7.31628V7.13023C5.5907 7.09302 5.83256 6.97674 6.02326 6.7907C6.25581 6.55814 6.3814 6.25581 6.3814 5.93023C6.3814 5.37209 6 4.88372 5.45581 4.74884L5.46046 4.75349Z" fill="#878FBC"/>
</svg>
