<svg width="10" height="9" viewBox="0 0 10 9" fill="none" xmlns="http://www.w3.org/2000/svg">
<path d="M7.488 4.79733L2.66667 9.59733H0V6.93067L4.8 2.10933C4.864 2.04533 4.96533 2.04533 5.024 2.10933L7.48267 4.568C7.54667 4.632 7.54667 4.73333 7.48267 4.792L7.488 4.79733ZM8.05867 4.01333C8.12267 4.07733 8.224 4.07733 8.28267 4.01333L9.28533 3.01067C9.70133 2.59467 9.70133 1.912 9.28533 1.496L8.10133 0.312C7.68533 -0.104 7.00267 -0.104 6.58667 0.312L5.584 1.31467C5.52 1.37867 5.52 1.48 5.584 1.53867L8.05867 4.01333ZM9.6 9.19733H5.86667C5.648 9.19733 5.46667 9.37867 5.46667 9.59733C5.46667 9.816 5.648 9.99733 5.86667 9.99733H9.6C9.81867 9.99733 10 9.816 10 9.59733C10 9.37867 9.81867 9.19733 9.6 9.19733Z" fill="#878FBC"/>
</svg>
