<svg width="13" height="12" viewBox="0 0 13 12" fill="none" xmlns="http://www.w3.org/2000/svg">
<path id="&#231;&#188;&#150;&#232;&#190;&#145;" fill-rule="evenodd" clip-rule="evenodd" d="M12.6003 11.538C12.6003 11.7904 12.391 11.9996 12.1387 11.9996H7.83105C7.57874 11.9996 7.36951 11.7904 7.36951 11.538C7.36951 11.2857 7.57874 11.0765 7.83105 11.0765H12.1387C12.391 11.0765 12.6003 11.2857 12.6003 11.538ZM11.4493 3.60639L10.1632 4.89254L7.70779 2.43716L8.99395 1.151C9.13549 1.00331 9.33241 0.923309 9.53549 0.923309C9.74472 0.923309 9.93549 1.00331 10.0832 1.151L11.4493 2.51716C11.597 2.66485 11.677 2.86177 11.677 3.06485C11.677 3.26792 11.597 3.46485 11.4493 3.60639ZM3.94802 11.0765H1.52341V8.65186L7.05571 3.09494L9.50495 5.54417L3.94802 11.0765ZM12.6001 3.06462C12.6001 2.61538 12.4216 2.18462 12.1016 1.86462L10.7355 0.498462C10.4155 0.178462 9.99087 0 9.53548 0C9.0801 0 8.65548 0.178462 8.33548 0.498462L0.735482 8.13538C0.649328 8.22154 0.600098 8.33846 0.600098 8.46154V11.5385C0.600098 11.7908 0.809328 12 1.06164 12H4.13856C4.26164 12 4.37856 11.9508 4.46471 11.8646L12.1016 4.26462C12.4216 3.94462 12.6001 3.52 12.6001 3.06462Z" fill="#959A9F"/>
</svg>
