<svg width="20" height="20" viewBox="0 0 20 20" fill="none" xmlns="http://www.w3.org/2000/svg">
<g clip-path="url(#clip0_43608_80458)">
<path d="M4.18156 10C4.18156 9.365 4.2899 8.75584 4.48156 8.185L1.11656 5.66833C0.440479 7.01206 0.0893882 8.49578 0.0915628 10C0.0915628 11.5567 0.459896 13.025 1.1149 14.3283L4.47823 11.8075C4.28212 11.225 4.18193 10.6146 4.18156 10Z" fill="#FBBC05"/>
<path d="M10.0917 4.22247C11.5 4.22247 12.7725 4.71081 13.7725 5.51081L16.6817 2.66664C14.9092 1.15581 12.6367 0.222473 10.0917 0.222473C6.14003 0.222473 2.74337 2.43497 1.1167 5.66831L4.48337 8.18497C5.25837 5.87997 7.46837 4.22247 10.0917 4.22247Z" fill="#EA4335"/>
<path d="M10.0917 15.7775C7.46753 15.7775 5.25753 14.12 4.4817 11.815L1.1167 14.3317C2.74253 17.565 6.1392 19.7775 10.0917 19.7775C12.53 19.7775 14.8584 18.93 16.6067 17.3408L13.4117 14.9225C12.5109 15.4783 11.3759 15.7775 10.0909 15.7775" fill="#34A853"/>
<path d="M19.6367 9.99997C19.6367 9.42247 19.545 8.79997 19.4092 8.22247H10.0908V12H15.4542C15.1867 13.2883 14.4567 14.2783 13.4125 14.9225L16.6067 17.3408C18.4425 15.6725 19.6367 13.1875 19.6367 9.99997Z" fill="#4285F4"/>
</g>
<defs>
<clipPath id="clip0_43608_80458">
<rect width="20" height="20" fill="white"/>
</clipPath>
</defs>
</svg>
