<svg width="13" height="12" viewBox="0 0 13 12" fill="none" xmlns="http://www.w3.org/2000/svg">
<path d="M10.6798 7.57062C10.4308 7.18793 10.0809 6.84861 9.64014 6.56207C9.58899 6.52881 9.53679 6.49651 9.48374 6.46506V3.08184C9.48374 2.73213 9.39367 2.39515 9.21606 2.08021C9.05312 1.79128 8.82394 1.53482 8.53486 1.31804C7.97488 0.898044 7.23976 0.666748 6.46487 0.666748C5.69 0.666748 4.95486 0.898044 4.39488 1.31804C4.1058 1.53485 3.87662 1.79128 3.71365 2.08021C3.53606 2.39515 3.446 2.73213 3.446 3.08184V6.46504C3.39297 6.49651 3.34077 6.52879 3.2896 6.56204C2.84877 6.84859 2.49898 7.18791 2.24995 7.5706C1.97523 7.99281 1.83594 8.44625 1.83594 8.91832V9.32084C1.83594 9.58119 1.92879 9.96833 2.37111 10.3344C2.62915 10.5479 2.98177 10.7338 3.41921 10.8869C4.2419 11.1748 5.32353 11.3334 6.46487 11.3334C7.60618 11.3334 8.68781 11.1748 9.51053 10.8869C9.94796 10.7338 10.3006 10.5479 10.5586 10.3344C11.001 9.96833 11.0938 9.58119 11.0938 9.32084V8.91832C11.0938 8.44625 10.9545 7.99281 10.6798 7.57062Z" fill="#ED3620"/>
<path d="M2.43945 8.91835C2.43945 7.4734 4.24159 6.302 6.46461 6.302C8.68763 6.302 10.4898 7.4734 10.4898 8.91835V9.32087C10.4898 10.0989 8.68763 10.7297 6.46461 10.7297C4.24159 10.7297 2.43945 10.0989 2.43945 9.32087V8.91835Z" fill="#FF4029"/>
<path d="M6.46484 6.302V10.7297C8.68786 10.7297 10.49 10.0989 10.49 9.32087V8.91835C10.49 7.4734 8.68786 6.302 6.46484 6.302Z" fill="#FE5C48"/>
<path d="M7.62695 8.85107H7.70522V9.32068H7.62695V8.85107Z" fill="white"/>
<path d="M7.54883 8.85107H7.62709V9.32068H7.54883V8.85107Z" fill="#C9CFD3"/>
<path d="M7.54883 8.92944V9.07571C7.57388 9.08217 7.60002 9.08597 7.62709 9.08597C7.65416 9.08597 7.6803 9.08217 7.70536 9.07571V8.92944H7.62709H7.54883Z" fill="#C9CFD3"/>
<path d="M7.4707 7.91187V8.85106C7.4707 8.93753 7.54079 9.00761 7.62726 9.00761V7.91187H7.4707Z" fill="#C9CFD3"/>
<path d="M7.78351 7.91187V8.85106C7.78351 8.93753 7.71342 9.00761 7.62695 9.00761V7.91187H7.78351Z" fill="#EFEFEF"/>
<path d="M7.62695 8.53818L7.78348 8.38165V8.2251L7.62695 8.38165V8.53818Z" fill="#C9CFD3"/>
<path d="M7.62695 8.85114L7.78348 8.69461V8.53809L7.62695 8.69461V8.85114Z" fill="#C9CFD3"/>
<path d="M7.62695 8.22492L7.78348 8.06842V7.91187L7.62695 8.06842V8.22492Z" fill="#C9CFD3"/>
<path d="M5.30078 8.85107H5.37905V9.32068H5.30078V8.85107Z" fill="white"/>
<path d="M5.22266 8.85107H5.30092V9.32068H5.22266V8.85107Z" fill="#C9CFD3"/>
<path d="M5.22266 8.92944V9.07571C5.24771 9.08217 5.27385 9.08597 5.30092 9.08597C5.32799 9.08597 5.35413 9.08217 5.37918 9.07571V8.92944H5.30092H5.22266Z" fill="#C9CFD3"/>
<path d="M5.14453 7.91187V8.85106C5.14453 8.93753 5.21462 9.00761 5.30108 9.00761V7.91187H5.14453Z" fill="#C9CFD3"/>
<path d="M5.45733 7.91187V8.85106C5.45733 8.93753 5.38725 9.00761 5.30078 9.00761V7.91187H5.45733Z" fill="#EFEFEF"/>
<path d="M5.30078 8.53818L5.45733 8.38165V8.2251L5.30078 8.38165V8.53818Z" fill="#C9CFD3"/>
<path d="M5.30078 8.85114L5.45733 8.69461V8.53809L5.30078 8.69461V8.85114Z" fill="#C9CFD3"/>
<path d="M5.30078 8.22492L5.45733 8.06842V7.91187L5.30078 8.06842V8.22492Z" fill="#C9CFD3"/>
<path d="M6.46392 1.27051C5.13009 1.27051 4.04883 2.08148 4.04883 3.08183V6.50321C4.04883 7.50356 5.13009 8.31453 6.46392 8.31453C7.79776 8.31453 8.87902 7.50356 8.87902 6.50321V3.08183C8.87902 2.08148 7.79776 1.27051 6.46392 1.27051Z" fill="#FF4029"/>
<path d="M3.64648 8.9183V10.3268C3.67952 10.3381 3.713 10.3493 3.74711 10.3602V8.71704C3.69154 8.71704 3.64648 8.80715 3.64648 8.9183Z" fill="#F3331C"/>
<path d="M3.74805 8.71704V10.3602C3.78108 10.3708 3.81464 10.3811 3.84868 10.3913V8.9183C3.84868 8.80715 3.80362 8.71704 3.74805 8.71704Z" fill="#FF6A58"/>
<path d="M9.18071 10.3602V8.71704C9.12513 8.71704 9.08008 8.80715 9.08008 8.9183V10.3914C9.11412 10.3811 9.1477 10.3708 9.18071 10.3602Z" fill="#FF4029"/>
<path d="M9.28227 10.3268V8.9183C9.28227 8.80715 9.23721 8.71704 9.18164 8.71704V10.3602C9.21575 10.3493 9.24926 10.3381 9.28227 10.3268Z" fill="#FF6A58"/>
<path d="M6.46484 1.27051V3.63529C7.68754 3.63529 8.67868 4.37868 8.67868 5.29566V6.36065C8.67868 7.27763 7.68754 8.02102 6.46484 8.02102V8.31453C7.79868 8.31453 8.87994 7.50356 8.87994 6.50321V3.08183C8.87994 2.08148 7.79868 1.27051 6.46484 1.27051Z" fill="#FE5C48"/>
<path d="M6.46384 4.08813C5.24114 4.08813 4.25 4.80899 4.25 5.6982V6.30197C4.25 6.37271 4.25634 6.44235 4.26849 6.5107C4.27853 6.52408 4.28879 6.53691 4.29918 6.54919C4.29971 6.5498 4.30021 6.55047 4.30074 6.55108C4.31146 6.56363 4.3223 6.57553 4.33337 6.58657L5.17294 7.42615C5.32947 7.5827 5.63868 7.71078 5.86006 7.71078H6.46384H7.06761C7.28899 7.71078 7.5982 7.5827 7.75473 7.42617L8.5943 6.5866C8.60535 6.57556 8.61621 6.56366 8.62693 6.5511C8.62746 6.5505 8.62796 6.54982 8.62849 6.54922C8.63888 6.53694 8.64912 6.52411 8.65918 6.51073C8.67133 6.44235 8.67767 6.37271 8.67767 6.30197V5.6982C8.67767 4.80899 7.6865 4.08813 6.46384 4.08813Z" fill="#D7D9DB"/>
<path d="M6.46502 4.49048L6.0625 6.10054H6.86753L6.46502 6.50306V7.7106H7.06879C7.29017 7.7106 7.59938 7.58253 7.75591 7.426L8.59548 6.58643C8.60653 6.57538 8.61739 6.56349 8.62811 6.55093C8.62864 6.55033 8.62914 6.54965 8.62967 6.54904C8.64006 6.53677 8.6503 6.52394 8.66036 6.51055C8.67251 6.44218 8.67885 6.37254 8.67885 6.3018V5.69805C8.67885 5.03113 7.68768 4.49048 6.46502 4.49048Z" fill="#F1F2F2"/>
<path d="M6.26367 6.70435H6.66619L6.46493 7.30812L6.26367 6.70435Z" fill="#231F20"/>
<path d="M5.98551 4.95589H5.85972C5.85972 4.76862 5.70737 4.61626 5.5201 4.61626C5.33283 4.61626 5.18047 4.76862 5.18047 4.95589H5.05469C5.05469 4.69926 5.26347 4.49048 5.5201 4.49048C5.77673 4.49048 5.98551 4.69926 5.98551 4.95589Z" fill="#231F20"/>
<path d="M7.87222 4.95589H7.74644C7.74644 4.76862 7.59409 4.61626 7.40682 4.61626C7.21954 4.61626 7.06719 4.76862 7.06719 4.95589H6.94141C6.94141 4.69926 7.15019 4.49048 7.40682 4.49048C7.66344 4.49048 7.87222 4.69926 7.87222 4.95589Z" fill="#231F20"/>
<path d="M4.95423 6.1006C5.12096 6.1006 5.25612 5.96544 5.25612 5.79871C5.25612 5.63199 5.12096 5.49683 4.95423 5.49683C4.7875 5.49683 4.65234 5.63199 4.65234 5.79871C4.65234 5.96544 4.7875 6.1006 4.95423 6.1006Z" fill="#E5CFCF"/>
<path d="M7.97376 6.1006C8.14049 6.1006 8.27565 5.96544 8.27565 5.79871C8.27565 5.63199 8.14049 5.49683 7.97376 5.49683C7.80703 5.49683 7.67188 5.63199 7.67188 5.79871C7.67188 5.96544 7.80703 6.1006 7.97376 6.1006Z" fill="#E5CFCF"/>
<path d="M7.51614 6.48059C7.49138 6.49299 7.44849 6.5031 7.42082 6.5031H7.11893C7.09126 6.5031 7.0585 6.48285 7.0461 6.4581L6.86736 6.10059H6.46484L6.81154 6.62064C6.84225 6.66667 6.91264 6.70436 6.96799 6.70436H7.3705C7.42585 6.70436 7.50313 6.67236 7.54228 6.63321L7.87365 6.30184L7.51614 6.48059Z" fill="#231F20"/>
<path d="M6.06098 6.10059L5.88223 6.4581C5.86983 6.48285 5.83708 6.5031 5.8094 6.5031H5.50752C5.47984 6.5031 5.43695 6.49299 5.4122 6.48059L5.05469 6.30184L5.38606 6.63321C5.4252 6.67236 5.50249 6.70436 5.55783 6.70436H5.96035C6.01569 6.70436 6.08608 6.66667 6.1168 6.62064L6.46349 6.10059H6.06098Z" fill="#231F20"/>
</svg>
